HIERARCHY
ROOT root
{
	OFFSET 0.000000 0.000000 0.000000
	CHANNELS 6 Xposition Yposition Zposition Zrotation Yrotation Xrotation
	JOINT lhip
	{
		OFFSET 0.058581 -0.082280 -0.017664
		CHANNELS 3 Zrotation Yrotation Xrotation
		JOINT lknee
		{
			OFFSET 0.043451 -0.386469 0.008037
			CHANNELS 3 Zrotation Yrotation Xrotation
			JOINT lankle
			{
				OFFSET -0.014790 -0.426874 -0.037428
				CHANNELS 3 Zrotation Yrotation Xrotation
				JOINT ltoe
				{
					OFFSET 0.041054 -0.060286 0.122042
					CHANNELS 3 Zrotation Yrotation Xrotation
					End Site
					{
						OFFSET 0.000000 0.000000 0.000000
					}
				}
			}
		}
	}
	JOINT rhip
	{
		OFFSET -0.060310 -0.090513 -0.013543
		CHANNELS 3 Zrotation Yrotation Xrotation
		JOINT rknee
		{
			OFFSET -0.043257 -0.383688 -0.004843
			CHANNELS 3 Zrotation Yrotation Xrotation
			JOINT rankle
			{
				OFFSET 0.019056 -0.420046 -0.034562
				CHANNELS 3 Zrotation Yrotation Xrotation
				JOINT rtoe
				{
					OFFSET -0.034840 -0.062106 0.130323
					CHANNELS 3 Zrotation Yrotation Xrotation
					End Site
					{
						OFFSET 0.000000 0.000000 0.000000
					}
				}
			}
		}
	}
	JOINT lowerback
	{
		OFFSET 0.004439 0.124404 -0.038385
		CHANNELS 3 Zrotation Yrotation Xrotation
		JOINT upperback
		{
			OFFSET 0.004488 0.137956 0.026820
			CHANNELS 3 Zrotation Yrotation Xrotation
			JOINT chest
			{
				OFFSET -0.002265 0.056032 0.002855
				CHANNELS 3 Zrotation Yrotation Xrotation
				JOINT lowerneck
				{
					OFFSET -0.013390 0.211636 -0.033468
					CHANNELS 3 Zrotation Yrotation Xrotation
					JOINT upperneck
					{
						OFFSET 0.010113 0.088937 0.050410
						CHANNELS 3 Zrotation Yrotation Xrotation
						End Site
						{
							OFFSET 0.000000 0.000000 0.000000
						}
					}
				}
				JOINT lclavicle
				{
					OFFSET 0.071702 0.114000 -0.018898
					CHANNELS 3 Zrotation Yrotation Xrotation
					JOINT lshoulder
					{
						OFFSET 0.122921 0.045205 -0.019046
						CHANNELS 3 Zrotation Yrotation Xrotation
						JOINT lelbow
						{
							OFFSET 0.255332 -0.015649 -0.022946
							CHANNELS 3 Zrotation Yrotation Xrotation
							JOINT lwrist
							{
								OFFSET 0.265709 0.012698 -0.007375
								CHANNELS 3 Zrotation Yrotation Xrotation
								End Site
								{
									OFFSET 0.000000 0.000000 0.000000
								}
							}
						}
					}
				}
				JOINT rclavicle
				{
					OFFSET -0.082954 0.112472 -0.023707
					CHANNELS 3 Zrotation Yrotation Xrotation
					JOINT rshoulder
					{
						OFFSET -0.113228 0.046853 -0.008472
						CHANNELS 3 Zrotation Yrotation Xrotation
						JOINT relbow
						{
							OFFSET -0.260127 -0.014369 -0.031269
							CHANNELS 3 Zrotation Yrotation Xrotation
							JOINT rwrist
							{
								OFFSET -0.269108 0.006794 -0.006027
								CHANNELS 3 Zrotation Yrotation Xrotation
								End Site
								{
									OFFSET 0.000000 0.000000 0.000000
								}
							}
						}
					}
				}
			}
		}
	}
}
MOTION
Frames: 16
Frame Time: 0.033333
0.468675 0.770915 1.303881 -30.229373 -2.062420 92.158353 0.053017 -4.741832 -11.590160 -2.936811 -0.494358 11.092939 -5.719716 5.468098 24.717229 0.000000 -0.000000 0.000000 -0.848188 -8.456005 -4.526826 1.155870 -12.452329 19.284007 9.476729 -8.998902 42.050955 0.000000 -0.000000 0.000000 -1.421588 5.872415 4.348504 2.086357 0.060171 -3.519627 2.015640 0.531148 2.932323 -1.718103 0.359281 9.281399 7.776601 9.975144 8.025253 -20.568453 -3.892371 4.106385 -60.851692 -8.994283 20.923712 -8.795338 -59.213378 33.996110 -0.361733 -11.248095 -7.796539 14.540255 5.344333 -0.138675 51.348759 9.190877 17.876580 -4.028682 54.009804 20.003678 20.403856 7.173637 -3.384116 
0.464040 0.764848 1.366996 -19.804860 -1.168043 87.779082 0.501653 -3.375431 -8.229320 -3.383983 -5.357931 16.697137 -8.527466 2.765573 23.481027 0.000000 -0.000000 0.000000 1.110729 -5.822144 -3.193779 1.037163 -8.845548 27.408563 10.548346 -4.396460 41.654218 0.000000 -0.000000 0.000000 -0.550724 5.222371 7.957188 2.626613 0.273426 -3.478480 2.302604 0.010355 3.286205 -1.624216 1.137141 8.226312 7.602218 9.617163 8.400781 -23.203912 -5.474581 4.014068 -64.398249 -10.455268 19.605213 -0.502261 -52.011670 25.091776 -2.406534 -9.999973 -2.543674 17.222923 4.907330 0.499792 52.761674 6.117931 16.093610 -5.321658 51.849542 16.851105 18.035317 7.363050 -7.014059 
0.462284 0.759275 1.420192 -7.878570 -1.250827 85.890425 0.622974 -4.849212 -6.491804 -3.515864 -7.888876 18.567672 -10.680706 2.419522 22.728724 0.000000 -0.000000 0.000000 3.595366 -3.322863 0.270450 0.030311 -3.404160 21.406336 8.947771 -4.584750 38.907579 0.000000 -0.000000 0.000000 -1.773039 3.687262 6.553247 3.274624 -2.172236 0.712379 2.855862 -0.493019 2.941814 -0.959685 1.064288 8.861890 7.773512 9.098085 8.271399 -25.587880 -5.208202 3.433011 -66.330504 -11.367668 18.670234 6.047603 -46.290164 17.368423 -0.097877 -8.448143 -3.627177 20.052107 4.409136 2.269168 53.583449 7.482726 15.718552 -7.461087 47.651932 13.864330 15.148924 6.658799 -9.591288 
0.463524 0.756447 1.462424 4.271440 -2.101624 86.733804 0.528301 -5.722850 -7.369981 -3.117232 -7.195486 17.454720 -11.085506 3.727383 22.958031 0.000000 -0.000000 0.000000 2.359961 -3.013287 -0.287660 -0.669271 -5.614622 17.024133 6.598794 -6.145501 29.306509 0.000000 -0.000000 0.000000 -2.983890 2.544145 4.343200 3.086384 -3.989446 0.920147 2.376815 -1.416357 3.012905 -0.213538 1.835831 9.120587 7.445726 7.840989 7.903932 -26.650377 -3.664100 3.750160 -65.459090 -12.007699 18.147566 7.424922 -42.713720 15.607889 -0.151204 -8.094888 -4.086691 22.395201 2.622526 3.550651 55.157556 7.921357 16.004074 -9.080118 43.684917 12.671314 13.656627 5.887467 -8.843118 
0.463458 0.754907 1.495230 14.094051 -2.059694 87.232652 1.822669 -3.176952 -7.771614 -3.137642 -4.427098 16.186924 -11.635582 3.741985 21.139277 0.000000 -0.000000 0.000000 0.957736 -4.169946 -1.898478 -0.530902 -7.591440 16.334273 10.047245 -4.676542 29.030565 0.000000 -0.000000 0.000000 -2.591154 3.141818 3.895100 2.656289 -3.599747 0.006741 1.527117 -1.600857 2.352062 -0.407038 3.058316 9.610054 7.300881 7.197508 7.253826 -26.182430 -3.885129 4.511116 -63.150857 -12.252838 17.047588 5.482747 -40.477374 16.513762 -0.962490 -8.365123 -1.333237 23.462464 0.905101 3.698620 55.344630 5.535403 14.824070 -7.919693 42.737029 12.722319 13.060162 5.940572 -7.781479 
0.465101 0.754370 1.516223 22.397324 -2.035240 86.535174 2.577160 -0.326223 -6.693059 -3.328171 -2.288235 14.789128 -10.976754 4.464296 20.485339 0.000000 -0.000000 0.000000 -0.465095 -5.065431 -3.003831 -0.193667 -5.914684 17.852648 11.187933 -4.420990 31.293253 0.000000 -0.000000 0.000000 -1.940497 3.571552 4.716049 2.135491 -2.655507 -0.046630 1.216278 -1.141819 2.268777 -0.757654 2.974332 9.117611 7.775105 7.672794 7.754493 -24.908440 -5.718547 4.037763 -60.396507 -11.664604 15.865821 4.287720 -38.314561 15.590510 -0.773750 -8.910959 0.212898 22.458891 1.567625 3.989957 54.919645 3.011041 14.070333 -7.877744 43.532773 10.351941 13.085313 5.700070 -7.574522 
0.465083 0.755097 1.525291 30.596468 -1.746509 86.095540 3.611736 0.973234 -6.331616 -3.945701 -1.684810 14.178504 -10.542060 5.046093 20.768771 0.000000 -0.000000 0.000000 -1.266134 -5.331528 -4.374353 -0.030401 -4.314101 19.808294 9.354604 -5.322823 30.750028 0.000000 -0.000000 0.000000 -2.019119 3.482933 5.246182 2.207300 -2.221830 0.578239 1.799819 -0.645665 2.001255 -0.790728 2.284737 9.019500 8.249161 8.242393 8.043643 -24.131200 -6.361284 3.199266 -56.977045 -10.991020 14.040307 4.235395 -36.893017 13.971114 -0.938918 -8.497218 1.810882 21.165248 2.737755 4.316966 52.258603 1.437996 13.243484 -7.401919 44.187754 10.069763 15.026513 5.862279 -6.253884 
0.466968 0.755805 1.524133 38.968971 -1.146208 85.886371 4.117974 0.802479 -6.344844 -3.530655 -3.062183 14.011319 -11.235967 5.879769 21.551841 0.000000 -0.000000 0.000000 -1.511280 -3.937324 -5.096362 -0.177418 -2.672495 20.470057 7.949696 -6.101997 29.853208 0.000000 -0.000000 0.000000 -1.185841 2.665758 5.642996 2.219947 -2.132026 0.829340 1.689320 -0.389256 1.590418 -0.851857 1.708969 9.994606 8.216414 8.685897 7.308821 -23.706372 -5.933558 2.797680 -52.745731 -10.136749 12.061682 4.885177 -36.122616 10.909028 -0.826223 -8.373929 3.038555 20.235196 3.148872 4.292357 48.344106 0.460247 12.697218 -6.167798 44.472777 10.753797 15.964485 5.628424 -4.904176 
0.468645 0.755803 1.513182 46.920516 -0.899432 85.825357 4.102379 0.521093 -6.462438 -3.363886 -4.343790 14.252071 -10.890863 6.804916 21.729147 0.000000 -0.000000 0.000000 -2.153096 -3.598931 -5.207917 0.059231 -1.188354 19.773444 8.329418 -6.050663 29.060770 0.000000 -0.000000 0.000000 -0.715854 2.244322 5.899580 1.998644 -2.331887 0.542725 1.332153 -0.469653 1.584766 -0.879579 1.572933 10.587253 7.936875 8.627927 6.642612 -22.703560 -5.194411 2.479195 -48.302425 -9.265308 10.255290 4.944405 -34.755516 8.504565 -0.617033 -8.625528 3.333728 19.963886 2.994877 3.652100 44.702049 0.431766 11.993837 -5.314179 42.814529 10.336592 15.991937 5.645352 -3.524949 
0.469572 0.755514 1.490833 53.743767 -0.520284 86.200291 4.423634 1.355098 -6.820956 -3.334684 -4.633436 14.197788 -11.052505 6.965494 21.258604 0.000000 -0.000000 0.000000 -2.435089 -3.754313 -5.833663 0.448520 -0.174656 18.809872 8.210228 -6.341408 28.825681 0.000000 -0.000000 0.000000 -0.392957 2.029288 5.236498 2.002324 -2.400616 0.965204 1.213959 -0.514504 1.675628 -0.951870 1.348238 10.979003 7.902006 8.885306 6.248059 -21.590206 -4.848923 2.637098 -44.500960 -7.717285 8.365039 4.884675 -33.423956 6.712827 -1.603012 -8.873698 4.118230 18.915542 3.324408 3.261806 41.650860 0.936283 10.949326 -4.653845 41.245991 9.404136 17.425071 5.601189 -3.411099 
0.468282 0.755316 1.458268 59.671357 -0.228993 86.606835 4.766674 1.957895 -6.928961 -3.454619 -4.420050 13.561989 -10.945771 7.540603 21.223350 0.000000 -0.000000 0.000000 -2.511750 -3.740567 -6.893581 0.578416 -0.737887 17.712958 8.194294 -7.168873 28.663200 0.000000 -0.000000 0.000000 -0.647323 1.914940 5.570912 2.130898 -2.476138 0.895963 1.508778 -0.461762 1.464895 -0.617588 1.301590 11.255118 7.739786 8.824909 5.920506 -20.302254 -4.323626 2.955364 -41.416599 -5.482317 7.150249 3.659236 -32.055652 6.371439 -2.481772 -9.173760 5.116430 17.870643 3.838306 2.425108 39.502661 1.715079 10.105102 -4.665494 39.633942 8.274660 19.056917 5.212455 -1.771374 
0.467116 0.755168 1.415786 64.556616 -0.155494 86.389331 4.730750 2.229730 -5.979731 -3.628314 -4.913133 12.484924 -10.860829 8.148059 20.894124 0.000000 -0.000000 0.000000 -2.613456 -3.552467 -7.160845 0.508954 -1.098572 15.862317 9.144268 -7.467356 28.718533 0.000000 -0.000000 0.000000 -0.600721 1.877536 7.182962 1.949349 -2.288851 0.399249 1.408664 -0.362245 1.311092 -0.190525 1.725952 11.065482 7.410573 8.305098 5.841195 -19.257350 -3.707612 3.565889 -38.943271 -2.894435 6.471798 2.114619 -30.762380 6.658543 -3.296761 -10.034473 4.785888 16.991005 4.699011 1.717445 38.659906 2.982382 9.867538 -5.708457 38.213669 6.672331 19.985135 4.512227 -1.339453 
0.465525 0.754806 1.362466 68.949370 0.114898 86.557128 4.745772 2.778370 -5.245510 -3.588076 -6.074971 10.832457 -10.966875 7.933121 20.083860 0.000000 -0.000000 0.000000 -2.091690 -3.929221 -8.056917 0.400586 -1.421810 14.088981 9.893208 -7.423986 28.424726 0.000000 -0.000000 0.000000 -0.365622 2.097726 8.148373 1.630591 -1.790372 0.527036 1.343331 -0.346894 1.586867 0.149505 2.148745 10.900337 7.156746 7.993624 5.799611 -18.771649 -3.263103 4.228365 -37.571487 -0.668589 6.008908 0.822145 -29.711834 7.392627 -3.546443 -10.575010 4.922716 16.432361 5.232111 0.898148 38.274410 4.394494 9.391722 -5.334580 37.434338 6.233013 18.875150 4.849116 -1.239192 
0.464826 0.752919 1.298152 73.791632 0.372267 87.032808 4.740228 2.596701 -4.853792 -3.464878 -6.876661 9.115732 -10.540942 7.174719 19.236220 0.000000 -0.000000 0.000000 -1.573964 -3.785245 -9.018539 1.122179 -2.429725 12.537673 9.884953 -7.406394 27.811121 0.000000 -0.000000 0.000000 -0.263494 2.042631 8.192407 1.437303 -1.463372 1.113222 1.017781 -0.251652 1.536536 0.241386 2.511744 11.063153 6.899243 7.668325 5.610215 -18.700350 -2.404570 5.278898 -37.648953 1.108914 5.525228 1.081186 -29.438218 5.715907 -4.304737 -10.728675 4.413891 16.322064 5.824927 1.244343 39.090081 5.887514 9.310182 -6.541783 37.002372 4.991254 21.047439 4.265566 -0.408086 
0.463158 0.750481 1.224712 79.252165 0.464006 86.529947 4.445907 1.658894 -3.767426 -3.175429 -8.494529 7.914302 -9.551408 7.339952 18.512761 0.000000 -0.000000 0.000000 -1.188661 -4.096845 -8.873022 2.154133 -3.616628 11.357321 12.165266 -7.087650 28.763534 0.000000 -0.000000 0.000000 -0.640906 2.255454 10.265985 1.194247 -1.055532 1.023572 1.232937 -0.299385 1.462069 0.461652 2.671401 10.953924 6.772696 7.408501 5.580326 -18.461853 -1.492849 5.526184 -39.103578 1.915474 5.862376 0.872633 -29.279789 6.035890 -2.499357 -10.989031 2.884980 16.177469 5.820903 0.358504 40.719836 6.808415 9.680559 -6.429617 35.965590 4.875451 20.408665 4.096578 -0.776094 
0.461899 0.748330 1.139964 85.308942 0.515901 86.900539 3.924387 0.631718 -5.774259 -3.378159 -8.624993 12.224661 -8.340905 7.571301 21.819837 0.000000 -0.000000 0.000000 -0.480805 -4.134760 -10.393995 2.640131 -4.616833 13.414109 12.270898 -6.077959 29.440577 0.000000 -0.000000 0.000000 -0.892012 2.570731 10.785850 1.146305 -0.869018 1.341991 1.132079 -0.310263 1.747321 0.715617 2.743965 10.494582 6.837551 7.174169 6.099262 -19.190031 -0.919785 5.829095 -40.341957 2.412218 6.383798 1.315619 -30.017095 6.022405 -1.185297 -11.638343 2.439549 16.637852 5.952406 0.254110 42.808839 7.621040 9.725523 -7.318653 33.506482 3.603592 20.146571 3.890998 -1.433178 
